<svg width="335" height="185" viewBox="0 0 335 185" fill="none" xmlns="http://www.w3.org/2000/svg">
<rect width="335" height="185" rx="20" fill="url(#paint0_linear_8_856)"/>
<g filter="url(#filter0_b_8_856)">
<rect width="335" height="185" rx="20" fill="white" fill-opacity="0.03"/>
</g>
<path fill-rule="evenodd" clip-rule="evenodd" d="M257.364 185C264.87 166.301 269 145.883 269 124.5C269 74.5193 246.435 29.8088 210.938 0L20 0C8.95431 0 0 8.9543 0 20V165C0 176.046 8.95431 185 20 185H257.364Z" fill="white" fill-opacity="0.06"/>
<path fill-rule="evenodd" clip-rule="evenodd" d="M239.635 185C245.699 167.964 249 149.617 249 130.5C249 77.0432 223.188 29.6152 183.347 0L20 0C8.95431 0 0 8.9543 0 20V165C0 176.046 8.95431 185 20 185H239.635Z" fill="white" fill-opacity="0.06"/>
<path opacity="0.9" d="M31.912 52.27C31.036 52.27 30.238 52.126 29.518 51.838C28.798 51.55 28.18 51.13 27.664 50.578C27.148 50.026 26.746 49.348 26.458 48.544C26.182 47.728 26.044 46.798 26.044 45.754C26.044 44.71 26.2 43.786 26.512 42.982C26.836 42.166 27.268 41.482 27.808 40.93C28.348 40.378 28.978 39.958 29.698 39.67C30.418 39.382 31.186 39.238 32.002 39.238C32.518 39.238 32.98 39.274 33.388 39.346C33.808 39.418 34.168 39.502 34.468 39.598C34.78 39.694 35.032 39.79 35.224 39.886C35.416 39.982 35.548 40.054 35.62 40.102L35.116 41.542C35.008 41.47 34.852 41.392 34.648 41.308C34.444 41.224 34.21 41.14 33.946 41.056C33.694 40.972 33.412 40.906 33.1 40.858C32.8 40.798 32.494 40.768 32.182 40.768C31.522 40.768 30.928 40.882 30.4 41.11C29.872 41.338 29.422 41.668 29.05 42.1C28.678 42.532 28.39 43.06 28.186 43.684C27.994 44.296 27.898 44.986 27.898 45.754C27.898 46.498 27.982 47.176 28.15 47.788C28.33 48.4 28.594 48.928 28.942 49.372C29.29 49.804 29.722 50.14 30.238 50.38C30.766 50.62 31.378 50.74 32.074 50.74C32.878 50.74 33.544 50.656 34.072 50.488C34.6 50.32 34.996 50.17 35.26 50.038L35.71 51.478C35.626 51.538 35.476 51.616 35.26 51.712C35.044 51.796 34.774 51.88 34.45 51.964C34.126 52.048 33.748 52.12 33.316 52.18C32.884 52.24 32.416 52.27 31.912 52.27ZM41.0581 42.442C41.2021 42.442 41.3641 42.454 41.5441 42.478C41.7361 42.49 41.9221 42.514 42.1021 42.55C42.2821 42.574 42.4441 42.604 42.5881 42.64C42.7441 42.664 42.8581 42.688 42.9301 42.712L42.6421 44.17C42.5101 44.122 42.2881 44.068 41.9761 44.008C41.6761 43.936 41.2861 43.9 40.8061 43.9C40.4941 43.9 40.1821 43.936 39.8701 44.008C39.5701 44.068 39.3721 44.11 39.2761 44.134V52H37.6021V43.036C37.9981 42.892 38.4901 42.76 39.0781 42.64C39.6661 42.508 40.3261 42.442 41.0581 42.442ZM44.0235 47.338C44.0235 46.51 44.1435 45.79 44.3835 45.178C44.6235 44.554 44.9415 44.038 45.3375 43.63C45.7335 43.222 46.1895 42.916 46.7055 42.712C47.2215 42.508 47.7495 42.406 48.2895 42.406C49.5495 42.406 50.5155 42.802 51.1875 43.594C51.8595 44.374 52.1955 45.568 52.1955 47.176C52.1955 47.248 52.1955 47.344 52.1955 47.464C52.1955 47.572 52.1895 47.674 52.1775 47.77H45.7695C45.8415 48.742 46.1235 49.48 46.6155 49.984C47.1075 50.488 47.8755 50.74 48.9195 50.74C49.5075 50.74 49.9995 50.692 50.3955 50.596C50.8035 50.488 51.1095 50.386 51.3135 50.29L51.5475 51.694C51.3435 51.802 50.9835 51.916 50.4675 52.036C49.9635 52.156 49.3875 52.216 48.7395 52.216C47.9235 52.216 47.2155 52.096 46.6155 51.856C46.0275 51.604 45.5415 51.262 45.1575 50.83C44.7735 50.398 44.4855 49.888 44.2935 49.3C44.1135 48.7 44.0235 48.046 44.0235 47.338ZM50.4495 46.42C50.4615 45.664 50.2695 45.046 49.8735 44.566C49.4895 44.074 48.9555 43.828 48.2715 43.828C47.8875 43.828 47.5455 43.906 47.2455 44.062C46.9575 44.206 46.7115 44.398 46.5075 44.638C46.3035 44.878 46.1415 45.154 46.0215 45.466C45.9135 45.778 45.8415 46.096 45.8055 46.42H50.4495ZM60.6482 44.62C60.4442 44.452 60.1502 44.29 59.7662 44.134C59.3822 43.978 58.9622 43.9 58.5062 43.9C58.0262 43.9 57.6122 43.99 57.2642 44.17C56.9282 44.338 56.6522 44.578 56.4362 44.89C56.2202 45.19 56.0642 45.55 55.9682 45.97C55.8722 46.39 55.8242 46.84 55.8242 47.32C55.8242 48.412 56.0942 49.258 56.6342 49.858C57.1742 50.446 57.8942 50.74 58.7942 50.74C59.2502 50.74 59.6282 50.722 59.9282 50.686C60.2402 50.638 60.4802 50.59 60.6482 50.542V44.62ZM60.6482 38.32L62.3222 38.032V51.73C61.9382 51.838 61.4462 51.946 60.8462 52.054C60.2462 52.162 59.5562 52.216 58.7762 52.216C58.0562 52.216 57.4082 52.102 56.8322 51.874C56.2562 51.646 55.7642 51.322 55.3562 50.902C54.9482 50.482 54.6302 49.972 54.4022 49.372C54.1862 48.76 54.0782 48.076 54.0782 47.32C54.0782 46.6 54.1682 45.94 54.3482 45.34C54.5402 44.74 54.8162 44.224 55.1762 43.792C55.5362 43.36 55.9742 43.024 56.4902 42.784C57.0182 42.544 57.6182 42.424 58.2902 42.424C58.8302 42.424 59.3042 42.496 59.7122 42.64C60.1322 42.784 60.4442 42.922 60.6482 43.054V38.32ZM66.8738 52H65.1998V42.64H66.8738V52ZM66.0278 40.948C65.7278 40.948 65.4698 40.852 65.2538 40.66C65.0498 40.456 64.9478 40.186 64.9478 39.85C64.9478 39.514 65.0498 39.25 65.2538 39.058C65.4698 38.854 65.7278 38.752 66.0278 38.752C66.3278 38.752 66.5798 38.854 66.7838 39.058C66.9998 39.25 67.1078 39.514 67.1078 39.85C67.1078 40.186 66.9998 40.456 66.7838 40.66C66.5798 40.852 66.3278 40.948 66.0278 40.948ZM71.3185 42.64H74.8645V44.044H71.3185V48.364C71.3185 48.832 71.3545 49.222 71.4265 49.534C71.4985 49.834 71.6065 50.074 71.7505 50.254C71.8945 50.422 72.0745 50.542 72.2905 50.614C72.5065 50.686 72.7585 50.722 73.0465 50.722C73.5505 50.722 73.9525 50.668 74.2525 50.56C74.5645 50.44 74.7805 50.356 74.9005 50.308L75.2245 51.694C75.0565 51.778 74.7625 51.88 74.3425 52C73.9225 52.132 73.4425 52.198 72.9025 52.198C72.2665 52.198 71.7385 52.12 71.3185 51.964C70.9105 51.796 70.5805 51.55 70.3285 51.226C70.0765 50.902 69.8965 50.506 69.7885 50.038C69.6925 49.558 69.6445 49.006 69.6445 48.382V40.03L71.3185 39.742V42.64ZM86.6327 52.27C85.7567 52.27 84.9587 52.126 84.2387 51.838C83.5187 51.55 82.9007 51.13 82.3847 50.578C81.8687 50.026 81.4667 49.348 81.1787 48.544C80.9027 47.728 80.7647 46.798 80.7647 45.754C80.7647 44.71 80.9207 43.786 81.2327 42.982C81.5567 42.166 81.9887 41.482 82.5287 40.93C83.0687 40.378 83.6987 39.958 84.4187 39.67C85.1387 39.382 85.9067 39.238 86.7227 39.238C87.2387 39.238 87.7007 39.274 88.1087 39.346C88.5287 39.418 88.8887 39.502 89.1887 39.598C89.5007 39.694 89.7527 39.79 89.9447 39.886C90.1367 39.982 90.2687 40.054 90.3407 40.102L89.8367 41.542C89.7287 41.47 89.5727 41.392 89.3687 41.308C89.1647 41.224 88.9307 41.14 88.6667 41.056C88.4147 40.972 88.1327 40.906 87.8207 40.858C87.5207 40.798 87.2147 40.768 86.9027 40.768C86.2427 40.768 85.6487 40.882 85.1207 41.11C84.5927 41.338 84.1427 41.668 83.7707 42.1C83.3987 42.532 83.1107 43.06 82.9067 43.684C82.7147 44.296 82.6187 44.986 82.6187 45.754C82.6187 46.498 82.7027 47.176 82.8707 47.788C83.0507 48.4 83.3147 48.928 83.6627 49.372C84.0107 49.804 84.4427 50.14 84.9587 50.38C85.4867 50.62 86.0987 50.74 86.7947 50.74C87.5987 50.74 88.2647 50.656 88.7927 50.488C89.3207 50.32 89.7167 50.17 89.9807 50.038L90.4307 51.478C90.3467 51.538 90.1967 51.616 89.9807 51.712C89.7647 51.796 89.4947 51.88 89.1707 51.964C88.8467 52.048 88.4687 52.12 88.0367 52.18C87.6047 52.24 87.1367 52.27 86.6327 52.27ZM95.4908 50.794C95.8868 50.794 96.2348 50.788 96.5348 50.776C96.8468 50.752 97.1048 50.716 97.3088 50.668V47.878C97.1888 47.818 96.9908 47.77 96.7148 47.734C96.4508 47.686 96.1268 47.662 95.7428 47.662C95.4908 47.662 95.2208 47.68 94.9328 47.716C94.6568 47.752 94.3988 47.83 94.1588 47.95C93.9308 48.058 93.7388 48.214 93.5828 48.418C93.4268 48.61 93.3488 48.868 93.3488 49.192C93.3488 49.792 93.5408 50.212 93.9248 50.452C94.3088 50.68 94.8308 50.794 95.4908 50.794ZM95.3468 42.406C96.0188 42.406 96.5828 42.496 97.0388 42.676C97.5068 42.844 97.8788 43.09 98.1548 43.414C98.4428 43.726 98.6468 44.104 98.7668 44.548C98.8868 44.98 98.9468 45.46 98.9468 45.988V51.838C98.8028 51.862 98.5988 51.898 98.3348 51.946C98.0828 51.982 97.7948 52.018 97.4708 52.054C97.1468 52.09 96.7928 52.12 96.4088 52.144C96.0368 52.18 95.6648 52.198 95.2928 52.198C94.7648 52.198 94.2788 52.144 93.8348 52.036C93.3908 51.928 93.0068 51.76 92.6828 51.532C92.3588 51.292 92.1068 50.98 91.9268 50.596C91.7468 50.212 91.6568 49.75 91.6568 49.21C91.6568 48.694 91.7588 48.25 91.9628 47.878C92.1788 47.506 92.4668 47.206 92.8268 46.978C93.1868 46.75 93.6068 46.582 94.0868 46.474C94.5668 46.366 95.0708 46.312 95.5988 46.312C95.7668 46.312 95.9408 46.324 96.1208 46.348C96.3008 46.36 96.4688 46.384 96.6248 46.42C96.7928 46.444 96.9368 46.468 97.0568 46.492C97.1768 46.516 97.2608 46.534 97.3088 46.546V46.078C97.3088 45.802 97.2788 45.532 97.2188 45.268C97.1588 44.992 97.0508 44.752 96.8948 44.548C96.7388 44.332 96.5228 44.164 96.2468 44.044C95.9828 43.912 95.6348 43.846 95.2028 43.846C94.6508 43.846 94.1648 43.888 93.7448 43.972C93.3368 44.044 93.0308 44.122 92.8268 44.206L92.6288 42.82C92.8448 42.724 93.2048 42.634 93.7088 42.55C94.2128 42.454 94.7588 42.406 95.3468 42.406ZM105.183 42.442C105.327 42.442 105.489 42.454 105.669 42.478C105.861 42.49 106.047 42.514 106.227 42.55C106.407 42.574 106.569 42.604 106.713 42.64C106.869 42.664 106.983 42.688 107.055 42.712L106.767 44.17C106.635 44.122 106.413 44.068 106.101 44.008C105.801 43.936 105.411 43.9 104.931 43.9C104.619 43.9 104.307 43.936 103.995 44.008C103.695 44.068 103.497 44.11 103.401 44.134V52H101.727V43.036C102.123 42.892 102.615 42.76 103.203 42.64C103.791 42.508 104.451 42.442 105.183 42.442ZM114.718 44.62C114.514 44.452 114.22 44.29 113.836 44.134C113.452 43.978 113.032 43.9 112.576 43.9C112.096 43.9 111.682 43.99 111.334 44.17C110.998 44.338 110.722 44.578 110.506 44.89C110.29 45.19 110.134 45.55 110.038 45.97C109.942 46.39 109.894 46.84 109.894 47.32C109.894 48.412 110.164 49.258 110.704 49.858C111.244 50.446 111.964 50.74 112.864 50.74C113.32 50.74 113.698 50.722 113.998 50.686C114.31 50.638 114.55 50.59 114.718 50.542V44.62ZM114.718 38.32L116.392 38.032V51.73C116.008 51.838 115.516 51.946 114.916 52.054C114.316 52.162 113.626 52.216 112.846 52.216C112.126 52.216 111.478 52.102 110.902 51.874C110.326 51.646 109.834 51.322 109.426 50.902C109.018 50.482 108.7 49.972 108.472 49.372C108.256 48.76 108.148 48.076 108.148 47.32C108.148 46.6 108.238 45.94 108.418 45.34C108.61 44.74 108.886 44.224 109.246 43.792C109.606 43.36 110.044 43.024 110.56 42.784C111.088 42.544 111.688 42.424 112.36 42.424C112.9 42.424 113.374 42.496 113.782 42.64C114.202 42.784 114.514 42.922 114.718 43.054V38.32Z" fill="white"/>
<circle cx="278" cy="47.9412" r="15" fill="#EB001B"/>
<circle cx="296" cy="47.9412" r="15" fill="#F79E1B"/>
<path fill-rule="evenodd" clip-rule="evenodd" d="M287 59.9411C291.141 57.5458 293.927 53.0688 293.927 47.9412C293.927 42.8135 291.141 38.3365 287 35.9412C282.859 38.3365 280.073 42.8135 280.073 47.9412C280.073 53.0688 282.859 57.5458 287 59.9411Z" fill="#FF5F00"/>
<path d="M219.224 40.524L212.94 55.516H208.84L205.748 43.55C205.56 42.814 205.398 42.544 204.826 42.234C203.894 41.728 202.354 41.254 201 40.958L201.092 40.524H207.692C208.123 40.5236 208.541 40.6773 208.868 40.9575C209.196 41.2377 209.413 41.6259 209.48 42.052L211.114 50.728L215.15 40.524H219.224ZM235.29 50.622C235.306 46.664 229.818 46.446 229.856 44.678C229.868 44.14 230.38 43.568 231.5 43.422C232.813 43.2974 234.134 43.5295 235.326 44.094L236.006 40.914C234.846 40.4779 233.617 40.2524 232.378 40.248C228.544 40.248 225.846 42.288 225.822 45.206C225.798 47.364 227.748 48.566 229.218 49.286C230.73 50.02 231.238 50.492 231.23 51.148C231.22 52.156 230.026 52.598 228.91 52.616C226.96 52.646 225.83 52.09 224.926 51.67L224.224 54.954C225.13 55.37 226.802 55.734 228.536 55.75C232.61 55.75 235.276 53.738 235.29 50.622ZM245.412 55.516H249L245.87 40.524H242.558C242.204 40.5207 241.857 40.6239 241.563 40.82C241.268 41.0161 241.039 41.2962 240.906 41.624L235.088 55.516H239.16L239.97 53.276H244.946L245.412 55.516ZM241.086 50.204L243.126 44.574L244.302 50.204H241.086ZM224.766 40.524L221.56 55.516H217.68L220.89 40.524H224.766Z" fill="white"/>
<defs>
<filter id="filter0_b_8_856" x="-80" y="-80" width="495" height="345" filterUnits="userSpaceOnUse" color-interpolation-filters="sRGB">
<feFlood flood-opacity="0" result="BackgroundImageFix"/>
<feGaussianBlur in="BackgroundImageFix" stdDeviation="40"/>
<feComposite in2="SourceAlpha" operator="in" result="effect1_backgroundBlur_8_856"/>
<feBlend mode="normal" in="SourceGraphic" in2="effect1_backgroundBlur_8_856" result="shape"/>
</filter>
<linearGradient id="paint0_linear_8_856" x1="-85" y1="-38.5" x2="382" y2="205.5" gradientUnits="userSpaceOnUse">
<stop offset="0.878935" stop-color="#DB4444"/>
</linearGradient>
</defs>
</svg>
